<?xml version="1.0" standalone="no"?>
<!DOCTYPE svg PUBLIC "-//W3C//DTD SVG 1.1//EN" "http://www.w3.org/Graphics/SVG/1.1/DTD/svg11.dtd" >
<svg xmlns="http://www.w3.org/2000/svg" xmlns:xlink="http://www.w3.org/1999/xlink" version="1.1">
<metadata>
Created by FontForge 20150318 at Thu May  7 13:42:57 2015
 By uniteet7
Copr. Luc as  de Groot 1994
</metadata>
<defs>
<font id="TheSansLightItalic" horiz-adv-x="535" >
  <font-face 
    font-family="TheSansLightItalic"
    font-weight="400"
    font-style="italic"
    font-stretch="normal"
    units-per-em="1000"
    panose-1="0 0 0 0 0 0 0 0 0 0"
    ascent="800"
    descent="-200"
    x-height="497"
    cap-height="675"
    bbox="-188 -423 1757.5 1164.5"
    underline-thickness="20"
    underline-position="-140"
    unicode-range="U+0020-FB02"
  />
<missing-glyph horiz-adv-x="500" 
 />
    <glyph glyph-name=".notdef" horiz-adv-x="500" 
 />
    <glyph glyph-name=".null" horiz-adv-x="0" 
 />
    <glyph glyph-name="nonmarkingreturn" horiz-adv-x="333" 
 />
    <glyph glyph-name="space" unicode=" " horiz-adv-x="218" 
 />
    <glyph glyph-name="exclam" unicode="!" horiz-adv-x="293" 
d="M270 700l-115 -546h-50l92 546h73zM155 40q0 -20 -13.5 -34t-33.5 -14t-33 13.5t-13 33.5t13.5 34t33.5 14t33 -13.5t13 -33.5z" />
    <glyph glyph-name="quotedbl" unicode="&#x22;" horiz-adv-x="338" 
d="M359 733l-37 -213h-46l12 213h71zM207 733l-37 -213h-45l12 213h70z" />
    <glyph glyph-name="numbersign" unicode="#" horiz-adv-x="659" 
d="M600 201h-155l-60 -201h-51l59 201h-159l-59 -201h-53l60 201h-152l8 44h157l62 210h-152l9 44h156l51 176h52l-51 -176h159l51 176h52l-51 -176h150l-8 -44h-155l-62 -210h151zM407 245l61 210h-159l-62 -210h160z" />
    <glyph glyph-name="dollar" unicode="$" horiz-adv-x="465" 
d="M448 611l-12 -58q-50 18 -111 18q-73 0 -110 -33t-37 -82q0 -34 22.5 -60t54.5 -44t64 -37t54.5 -52t22.5 -77q0 -68 -50.5 -123.5t-140.5 -67.5l-27 -136h-50l26 134q-55 0 -117 16l11 62q51 -24 128 -24q72 0 112.5 37.5t40.5 84.5q0 38 -22 66t-53.5 46t-63.5 36.5
t-54 50t-22 74.5q0 69 49 119t135 59l19 109h51l-20 -106q60 -3 100 -12z" />
    <glyph glyph-name="percent" unicode="%" horiz-adv-x="773" 
d="M387 550q0 -74 -46 -130.5t-127 -56.5q-132 0 -132 136q0 82 49 134t120 52q61 0 98.5 -32.5t37.5 -102.5zM681 663l-533 -684l-42 33l533 684zM714 177q0 -74 -46.5 -130.5t-127.5 -56.5q-132 0 -132 136q0 82 49.5 134t120.5 52q61 0 98.5 -32.5t37.5 -102.5zM326 540
q0 50 -19 73.5t-63 23.5q-46 0 -73.5 -40t-27.5 -93q0 -48 19 -70.5t62 -22.5q47 0 74.5 41.5t27.5 87.5zM653 167q0 50 -19.5 74t-63.5 24q-46 0 -73.5 -40.5t-27.5 -93.5q0 -48 19.5 -70.5t61.5 -22.5q48 0 75.5 41.5t27.5 87.5z" />
    <glyph glyph-name="ampersand" unicode="&#x26;" horiz-adv-x="778" 
d="M707 443q-26 -186 -145 -308q52 -50 122 -108l-44 -45q-69 57 -123 111q-126 -102 -283 -102q-90 0 -136 43.5t-46 109.5q0 45 15 84.5t46 73.5t59 57t71 53q-62 99 -62 159q0 71 50.5 119.5t131.5 48.5q66 0 98 -30t32 -79q0 -34 -13 -65t-40 -60t-52 -49.5t-65 -49.5
q72 -103 200 -233q100 102 121 270h63zM430 620q0 32 -19 50.5t-55 18.5q-52 0 -81.5 -30.5t-29.5 -77.5q0 -51 50 -133q44 31 68.5 51.5t45.5 53.5t21 67zM478 131q-131 133 -206 239q-74 -52 -113.5 -98.5t-39.5 -108.5q0 -51 32 -85t98 -34q122 0 229 87z" />
    <glyph glyph-name="quotesingle" unicode="'" horiz-adv-x="186" 
d="M207 733l-37 -213h-45l12 213h70z" />
    <glyph glyph-name="parenleft" unicode="(" horiz-adv-x="295" 
d="M375 766q-109 -134 -176 -301t-67 -329q0 -193 60 -329h-59q-62 151 -62 323q0 166 65.5 332.5t177.5 303.5h61z" />
    <glyph glyph-name="parenright" unicode=")" horiz-adv-x="295" 
d="M245 439q0 -328 -241 -632h-64q117 144 181.5 307t64.5 317q0 196 -58 335h54q63 -149 63 -327z" />
    <glyph glyph-name="asterisk" unicode="*" horiz-adv-x="359" 
d="M385 635l-111 -47l91 -53l-28 -42l-85 66l-14 -117l-50 7l29 108l-96 -63l-22 45l110 48l-92 52l28 41l84 -65l15 117l50 -6l-30 -109l99 62z" />
    <glyph glyph-name="plus" unicode="+" horiz-adv-x="561" 
d="M532 231h-223v-231h-59v231h-221v53h221v230h59v-230h223v-53z" />
    <glyph glyph-name="comma" unicode="," horiz-adv-x="204" 
d="M69 88q36 0 44 -36q13 -56 -54 -130q-29 -32 -70 -62l-25 29q98 82 69 138q-11 21 0.5 41t35.5 20z" />
    <glyph glyph-name="hyphen" unicode="-" horiz-adv-x="327" 
d="M278 223h-229v51h229v-51z" />
    <glyph glyph-name="period" unicode="." horiz-adv-x="204" 
d="M117 41q0 -20 -14 -34.5t-34 -14.5q-19 0 -32.5 14t-13.5 34t14 34.5t33 14.5q20 0 33.5 -14t13.5 -34z" />
    <glyph glyph-name="slash" unicode="/" horiz-adv-x="406" 
d="M452 675l-380 -675h-62l381 675h61z" />
    <glyph glyph-name="zero" unicode="0" horiz-adv-x="605" 
d="M557 328q0 -145 -92 -240.5t-221 -95.5q-94 0 -143 48t-49 137q0 149 89 247t219 98q94 0 145.5 -52.5t51.5 -141.5zM493 318q0 70 -36.5 111t-108.5 41q-100 0 -166 -82.5t-66 -195.5q0 -68 35.5 -108t105.5 -40q95 0 165.5 81t70.5 193z" />
    <glyph glyph-name="one" unicode="1" horiz-adv-x="329" 
d="M277 514l-98 -514h-65l88 452l-131 -53v62l152 53h54z" />
    <glyph glyph-name="two" unicode="2" horiz-adv-x="473" 
d="M420 395q0 -64 -39 -116.5t-125 -115.5l-146 -107v-2q48 4 273 4l-12 -58h-359l9 50l178 133q87 66 120 107.5t33 91.5q0 35 -23 61.5t-72 26.5q-76 0 -140 -44v60q69 36 152 36q72 0 111.5 -36t39.5 -91z" />
    <glyph glyph-name="three" unicode="3" horiz-adv-x="458" 
d="M403 394q0 -136 -159 -201l-1 -1q45 -5 78.5 -43t33.5 -93q0 -109 -88 -183.5t-217 -74.5q-47 0 -78 9l13 61q37 -15 76 -15q98 0 161.5 54.5t63.5 139.5q0 66 -57 93.5t-159 16.5l10 52q113 0 184.5 47t71.5 128q0 86 -99 86q-61 0 -127 -34v59q64 27 140 27
q77 0 115 -35t38 -93z" />
    <glyph glyph-name="four" unicode="4" horiz-adv-x="529" 
d="M476 58l-11 -58h-121l-38 -198h-62l38 198h-304v53l375 461h89l-87 -456h121zM369 453h-2l-324 -397q68 2 251 2z" />
    <glyph glyph-name="five" unicode="5" horiz-adv-x="454" 
d="M428 514l-12 -62h-230l-39 -203q99 -6 155.5 -58t56.5 -134q0 -80 -45.5 -140t-115 -89.5t-149.5 -29.5q-37 0 -66 4l12 61q34 -8 62 -8q102 0 168 50.5t66 138.5q0 66 -50 108t-164 42l61 320h290z" />
    <glyph glyph-name="six" unicode="6" horiz-adv-x="574" 
d="M541 705l-11 -54q-23 3 -45 3q-110 0 -188.5 -71t-121.5 -195q-2 -5 -7.5 -19.5t-9.5 -26.5v-1q30 46 81 72.5t109 26.5q86 0 128.5 -47t42.5 -115q0 -127 -81.5 -206.5t-191.5 -79.5q-90 0 -131 51.5t-41 140.5q0 59 13.5 125.5t46 138.5t79.5 128.5t122.5 93.5
t167.5 37q18 0 38 -2zM451 268q0 51 -30.5 84t-89.5 33q-77 0 -134 -62t-57 -147q0 -21 4.5 -41t15.5 -42.5t35 -36t57 -13.5q86 0 142.5 61.5t56.5 163.5z" />
    <glyph glyph-name="seven" unicode="7" horiz-adv-x="451" 
d="M472 514l-11 -54q-201 -305 -341 -658h-76q161 369 343 652q-23 -2 -319 -2l12 62h392z" />
    <glyph glyph-name="eight" unicode="8" horiz-adv-x="537" 
d="M518 575q0 -68 -46 -116t-131 -96q119 -79 119 -175q0 -87 -69.5 -141.5t-169.5 -54.5q-174 0 -174 139q0 53 29.5 98t65.5 71.5t94 59.5q-51 36 -79.5 73.5t-28.5 90.5q0 80 64 132.5t161 52.5q80 0 122.5 -36t42.5 -98zM453 563q0 41 -28 68t-81 27q-67 0 -108 -38.5
t-41 -90.5q0 -39 26 -69.5t75 -65.5q77 43 117 80.5t40 88.5zM393 174q0 49 -28.5 83t-83.5 72q-79 -43 -123 -87.5t-44 -104.5q0 -39 29 -66t91 -27q64 0 111.5 38.5t47.5 91.5z" />
    <glyph glyph-name="nine" unicode="9" horiz-adv-x="571" 
d="M503 329q0 -58 -13 -124t-45.5 -140t-80 -132t-125.5 -96.5t-173 -38.5q-34 0 -55 4l10 59q29 -6 59 -6q214 0 315 252q3 8 9.5 26.5t11.5 29.5v1q-66 -91 -190 -91q-83 0 -125.5 44.5t-42.5 116.5q0 116 74.5 202t190.5 86q180 0 180 -193zM436 337q0 58 -31.5 95.5
t-91.5 37.5q-79 0 -133 -68t-54 -160q0 -50 31 -81t83 -31q82 0 139 55t57 152z" />
    <glyph glyph-name="colon" unicode=":" horiz-adv-x="240" 
d="M186 340q0 -20 -14 -34t-34 -14t-33.5 14t-13.5 34t14 34t34 14t33.5 -14t13.5 -34zM128 41q0 -20 -14 -34.5t-33 -14.5q-20 0 -34 14t-14 34t14 34.5t34 14.5t33.5 -14t13.5 -34z" />
    <glyph glyph-name="semicolon" unicode=";" horiz-adv-x="240" 
d="M186 340q0 -20 -14 -34t-34 -14t-33.5 14t-13.5 34t14 34t34 14t33.5 -14t13.5 -34zM82 88q36 0 44 -36q13 -56 -54 -130q-29 -32 -70 -62l-25 29q98 82 69 138q-11 20 0.5 40.5t35.5 20.5z" />
    <glyph glyph-name="less" unicode="&#x3c;" horiz-adv-x="498" 
d="M64 250l315 282l40 -40l-274 -241l274 -233l-40 -43z" />
    <glyph glyph-name="equal" unicode="=" horiz-adv-x="596" 
d="M518 306h-440v53h440v-53zM518 149h-440v54h440v-54z" />
    <glyph glyph-name="greater" unicode="&#x3e;" horiz-adv-x="498" 
d="M434 258l-315 -282l-40 40l274 241l-274 233l40 43z" />
    <glyph glyph-name="question" unicode="?" horiz-adv-x="408" 
d="M380 528q0 -33 -13 -61t-33 -48.5t-44.5 -41t-47.5 -42t-41 -46t-26.5 -59.5t-2.5 -76h-63q-7 51 5 93.5t35 69.5t50.5 53.5t52.5 46.5t42 48t17 58q0 47 -46 81t-120 44l19 57q99 -12 157.5 -61.5t58.5 -115.5zM174 40q0 -20 -13.5 -34t-33.5 -14t-33 13.5t-13 33.5
t13.5 34t33.5 14t33 -13.5t13 -33.5z" />
    <glyph glyph-name="at" unicode="@" horiz-adv-x="849" 
d="M767 392q0 -108 -50 -163.5t-134 -55.5q-55 0 -78.5 30.5t-15.5 71.5h-2q-12 -38 -50.5 -70t-84.5 -32q-47 0 -66.5 28t-19.5 83q0 98 52 165.5t143 67.5q44 0 110 -10l-32 -180q-19 -105 57 -105q113 0 113 167q0 105 -66 177.5t-193 72.5q-130 0 -219.5 -91.5
t-89.5 -230.5q0 -125 75 -205t202 -80q75 0 139 21v-54q-69 -18 -146 -18q-149 0 -238.5 92t-89.5 239q0 161 109.5 269t260.5 108q147 0 230.5 -85.5t83.5 -211.5zM506 464q-22 6 -57 6q-60 0 -91 -55.5t-31 -118.5q0 -72 40 -72q43 0 78 54.5t53 142.5z" />
    <glyph glyph-name="A" unicode="A" horiz-adv-x="598" 
d="M533 0h-69l-27 172h-304l-95 -172h-70l378 675h67zM429 224l-50 286q-9 58 -13 96h-1q-20 -45 -47 -94l-158 -288h269z" />
    <glyph glyph-name="B" unicode="B" horiz-adv-x="551" 
d="M533 552q0 -74 -46 -125.5t-110 -71.5v-1q51 -9 81 -44.5t30 -81.5q0 -98 -76 -164.5t-213 -66.5q-1 0 -151 3l128 675q16 0 74 1t101 1q93 0 137.5 -34t44.5 -91zM467 539q0 41 -30 64t-104 23q-42 0 -104 -2l-48 -249q22 -1 66 -1q96 0 158 43.5t62 121.5zM421 221
q0 104 -168 104q-64 0 -81 -1l-51 -269q38 -6 94 -6q97 0 151.5 49.5t54.5 122.5z" />
    <glyph glyph-name="C" unicode="C" horiz-adv-x="572" 
d="M592 660l-13 -60q-75 27 -153 27q-75 0 -134.5 -34t-94.5 -91.5t-53 -126.5t-18 -145q0 -86 43 -134t145 -48q86 0 169 38l-1 -57q-90 -37 -187 -37q-238 0 -238 229q0 92 25 174t72 146.5t120.5 102t164.5 37.5q79 0 153 -21z" />
    <glyph glyph-name="D" unicode="D" horiz-adv-x="672" 
d="M650 432q0 -85 -27 -161t-79.5 -138.5t-139.5 -99t-198 -36.5q-35 0 -85.5 2t-72.5 1l128 675q24 0 87 1.5t95 1.5q155 0 223.5 -66.5t68.5 -179.5zM583 425q0 201 -235 201q-32 0 -119 -3l-108 -566q51 -7 94 -7q94 0 167 32.5t115.5 86.5t64 119t21.5 137z" />
    <glyph glyph-name="E" unicode="E" horiz-adv-x="497" 
d="M502 675l-10 -52h-263l-48 -249h252l-10 -51h-251l-51 -270h263l-10 -53h-326l128 675h326z" />
    <glyph glyph-name="F" unicode="F" horiz-adv-x="461" 
d="M501 675l-10 -52h-262l-48 -250h249l-10 -52h-248l-61 -321h-63l128 675h325z" />
    <glyph glyph-name="G" unicode="G" horiz-adv-x="673" 
d="M651 655l-19 -62q-78 37 -168 37q-145 0 -243 -109t-98 -267q0 -86 52.5 -147t161.5 -61q73 0 152 24l51 267h62l-59 -310q-104 -35 -217 -35q-132 0 -201.5 70.5t-69.5 187.5q0 190 121.5 311.5t297.5 121.5q99 0 177 -28z" />
    <glyph glyph-name="H" unicode="H" horiz-adv-x="692" 
d="M680 675l-128 -675h-63l61 324h-378l-61 -324h-63l128 675h63l-57 -298h378l57 298h63z" />
    <glyph glyph-name="I" unicode="I" horiz-adv-x="251" 
d="M239 675l-128 -675h-63l128 675h63z" />
    <glyph glyph-name="J" unicode="J" horiz-adv-x="317" 
d="M306 675l-97 -509q-16 -87 -60 -129.5t-126 -42.5q-33 0 -69 8l11 59q33 -13 66 -13q46 0 74.5 27t41.5 93l96 507h63z" />
    <glyph glyph-name="K" unicode="K" horiz-adv-x="537" 
d="M586 675l-342 -333l219 -342h-81l-208 342l-64 -342h-63l128 675h63l-63 -327l327 327h84z" />
    <glyph glyph-name="L" unicode="L" horiz-adv-x="416" 
d="M374 53l-11 -53h-315l128 675h63l-118 -622h253z" />
    <glyph glyph-name="M" unicode="M" horiz-adv-x="873" 
d="M799 675l-31 -675h-65l21 432q6 120 12 176h-2q-14 -36 -51 -106l-262 -502h-74l-67 471q-15 102 -14 137h-1q-10 -36 -52 -177l-133 -431h-68l221 675h81l68 -480q12 -87 11 -129h2q19 44 59 120l255 489h90z" />
    <glyph glyph-name="N" unicode="N" horiz-adv-x="689" 
d="M678 675l-129 -675h-74l-203 467q-38 87 -54 141q-17 -115 -49 -294l-59 -314h-63l128 675h75l202 -464q32 -74 55 -141q16 100 47 271l60 334h64z" />
    <glyph glyph-name="O" unicode="O" horiz-adv-x="692" 
d="M673 440q0 -191 -111.5 -319.5t-271.5 -128.5q-117 0 -176.5 63t-59.5 181q0 186 110 316.5t271 130.5q114 0 176 -63.5t62 -179.5zM604 433q0 93 -45.5 144.5t-134.5 51.5q-128 0 -214.5 -112.5t-86.5 -272.5q0 -91 45.5 -144t128.5 -53q126 0 216.5 111.5t90.5 274.5z
" />
    <glyph glyph-name="P" unicode="P" horiz-adv-x="507" 
d="M518 523q0 -110 -88.5 -181t-205.5 -71q-35 0 -62 3l-52 -274h-63l128 675q69 3 150 3q96 0 144.5 -41.5t48.5 -113.5zM452 512q0 114 -142 114q-48 0 -82 -3l-56 -293q27 -6 66 -6q86 0 150 54t64 134z" />
    <glyph glyph-name="Q" unicode="Q" horiz-adv-x="693" 
d="M673 440q0 -191 -111.5 -319.5t-271.5 -128.5q-117 0 -176.5 63t-59.5 181q0 186 109.5 316.5t270.5 130.5q114 0 176.5 -63.5t62.5 -179.5zM622 -114l-11 -55q-70 -9 -130.5 4t-115.5 26.5t-110 5.5l9 55q64 8 122 -5l116 -26t120 -5zM604 433q0 93 -45.5 144.5
t-134.5 51.5q-128 0 -214.5 -112.5t-86.5 -272.5q0 -91 45.5 -144t128.5 -53q126 0 216.5 111.5t90.5 274.5z" />
    <glyph glyph-name="R" unicode="R" horiz-adv-x="532" 
d="M510 535q0 -97 -76.5 -154.5t-189.5 -60.5q18 -23 47 -69l159 -251h-83l-193 319h-3l-60 -319h-63l128 675q62 3 143 3q191 0 191 -143zM444 529q0 51 -31.5 74.5t-102.5 23.5q-48 0 -81 -3l-48 -254q22 -2 61 -2q88 0 145 42t57 119z" />
    <glyph glyph-name="S" unicode="S" horiz-adv-x="449" 
d="M434 674l-11 -58q-44 15 -94 15q-78 0 -120 -38.5t-42 -89.5q0 -38 22 -68t53.5 -51.5t63.5 -44.5t54 -57t22 -78q0 -91 -72.5 -151.5t-184.5 -60.5q-62 0 -104 13l13 64q48 -21 98 -21q86 0 134.5 40.5t48.5 106.5q0 35 -22 63.5t-53 49.5t-62 43.5t-53 57.5t-22 80
q0 81 63.5 137.5t173.5 56.5q51 0 94 -9z" />
    <glyph glyph-name="T" unicode="T" horiz-adv-x="510" 
d="M572 675l-10 -53h-204l-119 -622h-63l119 622h-205l10 53h472z" />
    <glyph glyph-name="U" unicode="U" horiz-adv-x="685" 
d="M673 675l-81 -428q-48 -255 -302 -255q-70 0 -116.5 18t-66 49.5t-25 74.5t5.5 92l86 449h63l-86 -448q-18 -93 15.5 -138t132.5 -45q98 0 154 48t78 164l80 419h62z" />
    <glyph glyph-name="V" unicode="V" horiz-adv-x="598" 
d="M662 675l-379 -675h-70l-115 675h68l74 -462q17 -111 20 -146h1q21 50 77 152l254 456h70z" />
    <glyph glyph-name="W" unicode="W" horiz-adv-x="937" 
d="M978 675l-307 -675h-81l-48 512q-4 53 -6 101h-1q-19 -54 -43 -102l-239 -511h-81l-50 675h65l34 -489q4 -68 3 -124h1q27 68 51 121l231 492h80l50 -501q6 -59 5 -112h1q19 51 39 97l229 516h67z" />
    <glyph glyph-name="X" unicode="X" horiz-adv-x="565" 
d="M604 675l-270 -324l161 -351h-74l-131 300l-242 -300h-76l292 352l-148 323h71l121 -272l221 272h75z" />
    <glyph glyph-name="Y" unicode="Y" horiz-adv-x="508" 
d="M576 675l-293 -429l-47 -246h-63l47 246l-125 429h65l71 -251q16 -59 30 -122h1q19 35 84 133l157 240h73z" />
    <glyph glyph-name="Z" unicode="Z" horiz-adv-x="517" 
d="M550 675l-8 -46l-402 -505q-13 -18 -57 -68q23 2 180 2h174l-12 -58h-427l9 45l380 481q24 31 81 94q-76 -2 -157 -2h-184l11 57h412z" />
    <glyph glyph-name="bracketleft" unicode="[" horiz-adv-x="311" 
d="M372 767l-10 -47h-119l-166 -866h121l-10 -49h-177l183 962h178z" />
    <glyph glyph-name="backslash" unicode="\" horiz-adv-x="398" 
d="M304 0h-56l-123 675h54z" />
    <glyph glyph-name="bracketright" unicode="]" horiz-adv-x="311" 
d="M316 767l-183 -962h-178l9 49h120l165 866h-120l9 47h178z" />
    <glyph glyph-name="asciicircum" unicode="^" horiz-adv-x="534" 
d="M466 373l-49 -26l-150 278l-150 -278l-44 25l170 303h54z" />
    <glyph glyph-name="underscore" unicode="_" horiz-adv-x="500" 
d="M500 -252h-500v49h500v-49z" />
    <glyph glyph-name="grave" unicode="`" horiz-adv-x="359" 
d="M305 618l-34 -35l-118 102l43 44z" />
    <glyph glyph-name="a" unicode="a" 
d="M488 489q-68 -349 -93 -489h-64q11 60 65 233l-2 1q-16 -38 -34.5 -72.5t-49.5 -77t-73.5 -68t-90.5 -25.5q-107 0 -107 148q0 70 18 133t53.5 116t96.5 84t139 31t142 -14zM418 443q-42 11 -82 11q-61 0 -108 -27.5t-73 -73.5t-39 -97.5t-13 -105.5q0 -106 59 -106
q52 0 107 62.5t91 142.5t49 149z" />
    <glyph glyph-name="b" unicode="b" 
d="M498 358q0 -70 -18 -133t-54 -116t-97 -84t-139 -31q-71 0 -141 14l138 722h61l-50 -263q-10 -51 -56 -200l2 -1q42 107 105 173.5t141 66.5q108 0 108 -148zM434 347q0 106 -60 106q-52 0 -106.5 -62.5t-90.5 -141.5t-49 -147l-9 -48q39 -11 82 -11q61 0 107.5 27.5
t73 73.5t39.5 97.5t13 105.5z" />
    <glyph glyph-name="c" unicode="c" horiz-adv-x="418" 
d="M429 486l-14 -54q-49 22 -102 22q-66 0 -115 -46.5t-70.5 -110t-21.5 -130.5q0 -119 115 -119q67 0 125 29l-2 -56q-68 -27 -139 -27q-166 0 -166 158q0 148 76 250t205 102q57 0 109 -18z" />
    <glyph glyph-name="d" unicode="d" 
d="M534 730l-139 -730h-63q10 58 64 233l-2 1q-16 -38 -34.5 -72.5t-49.5 -77t-73.5 -68t-90.5 -25.5q-107 0 -107 148q0 70 18 133t53.5 116t96.5 84t139 31q40 0 81 -6l44 233h63zM418 443q-42 11 -82 11q-61 0 -108 -27.5t-73 -73.5t-39 -97.5t-13 -105.5q0 -106 59 -106
q52 0 107 62.5t91 142.5t49 149z" />
    <glyph glyph-name="e" unicode="e" horiz-adv-x="470" 
d="M444 398q0 -155 -330 -168q-6 -34 -6 -71q0 -67 25.5 -90.5t92.5 -23.5q72 0 138 29v-53q-69 -29 -161 -29q-81 0 -121 36t-40 120q0 93 30 173t92 132t145 52q66 0 100.5 -30t34.5 -77zM379 391q0 31 -21.5 48t-56.5 17q-64 0 -109.5 -48t-66.5 -125q133 5 193.5 31.5
t60.5 76.5z" />
    <glyph glyph-name="f" unicode="f" horiz-adv-x="333" 
d="M470 726l-17 -53q-36 10 -78 10q-61 0 -97.5 -36t-50.5 -115l-6 -35h151l-11 -50h-149l-91 -477q-23 -121 -77.5 -174.5t-146.5 -53.5q-45 0 -85 9l16 55q37 -11 79 -11q62 0 97.5 38.5t53.5 133.5l92 480h-112l11 50h111l6 34q37 204 220 204q40 0 84 -9z" />
    <glyph glyph-name="g" unicode="g" horiz-adv-x="534" 
d="M488 489l-105 -545q-38 -203 -275 -203q-70 0 -126 18l13 65q62 -26 131 -26q86 0 134.5 38.5t66.5 132.5q21 109 67 259l-2 1q-15 -36 -33 -69.5t-49 -75.5t-73.5 -67.5t-90.5 -25.5q-107 0 -107 148q0 70 18 133.5t54 116t96.5 83.5t138.5 31t142 -14zM418 443
q-42 11 -82 11q-61 0 -108 -27.5t-73 -73.5t-39 -97.5t-13 -105.5q0 -106 59 -106q52 0 107 62.5t91 142.5t49 149z" />
    <glyph glyph-name="h" unicode="h" horiz-adv-x="566" 
d="M490 335l-64 -335h-62l61 322q13 68 0 99.5t-53 31.5q-51 0 -105.5 -62t-90.5 -142t-49 -148l-19 -101h-61l139 730h61l-47 -250q-15 -77 -58 -208l2 -1q41 100 104 167.5t140 67.5q66 0 92 -44.5t10 -126.5z" />
    <glyph glyph-name="i" unicode="i" horiz-adv-x="249" 
d="M244 638q-1 -19 -15 -32.5t-33 -13.5q-18 0 -30 13t-11 32q2 19 15.5 32t32.5 13q18 0 30 -12.5t11 -31.5zM203 497l-95 -497h-61l95 497h61z" />
    <glyph glyph-name="j" unicode="j" horiz-adv-x="253" 
d="M247 638q-1 -19 -15 -32.5t-33 -13.5q-18 0 -30 13t-11 32q2 19 15.5 32t32.5 13q18 0 30 -12.5t11 -31.5zM208 497l-110 -574q-19 -95 -61 -138t-126 -43q-33 0 -63 7l13 57q28 -11 59 -11q55 0 79 31.5t41 118.5l106 552h62z" />
    <glyph glyph-name="k" unicode="k" horiz-adv-x="454" 
d="M448 478l-221 -204l161 -274h-76l-151 272l-53 -272h-61l139 730h61l-85 -451l244 239z" />
    <glyph glyph-name="l" unicode="l" horiz-adv-x="249" 
d="M247 730l-139 -730h-61l139 730h61z" />
    <glyph glyph-name="m" unicode="m" horiz-adv-x="868" 
d="M792 335l-64 -335h-62l62 322q26 132 -50 132q-49 0 -102.5 -62t-89.5 -142.5t-49 -150.5l-19 -99h-62l62 322q26 132 -50 132q-49 0 -102 -62t-89.5 -143t-49.5 -150l-19 -99h-61l94 497h64q-15 -75 -63 -225l2 -1q39 99 101.5 167t138.5 68q49 0 73.5 -25.5t24.5 -71.5
q0 -43 -30 -138h2q39 99 101.5 167t138.5 68q63 0 88.5 -44.5t9.5 -126.5z" />
    <glyph glyph-name="n" unicode="n" horiz-adv-x="566" 
d="M490 335l-64 -335h-62l61 322q26 131 -53 131q-51 0 -105.5 -62t-90.5 -142t-49 -148l-19 -101h-61l94 497h64q-14 -72 -63 -225l2 -1q41 100 104 167.5t140 67.5q66 0 91.5 -44.5t10.5 -126.5z" />
    <glyph glyph-name="o" unicode="o" 
d="M499 328q0 -149 -85 -242.5t-199 -93.5q-86 0 -130 44.5t-44 130.5q0 145 79 241.5t201 96.5q89 0 133.5 -47.5t44.5 -129.5zM433 322q0 131 -121 131q-89 0 -147.5 -81.5t-58.5 -192.5q0 -134 121 -134q82 0 144 77.5t62 199.5z" />
    <glyph glyph-name="p" unicode="p" 
d="M498 358q0 -70 -18 -133t-54 -116t-97 -84t-139 -31q-36 0 -82 7l-47 -252h-62l142 748h64q-11 -59 -63 -230l2 -1q42 107 105 173.5t141 66.5q108 0 108 -148zM434 347q0 106 -60 106q-52 0 -106.5 -62.5t-90 -141.5t-49.5 -147l-8 -44q42 -14 82 -14q60 0 106.5 27.5
t73 73t39.5 97t13 105.5z" />
    <glyph glyph-name="q" unicode="q" 
d="M488 489l-141 -740h-62l47 246q16 85 64 238l-2 1q-16 -38 -34.5 -72.5t-49.5 -77t-73.5 -68t-90.5 -25.5q-107 0 -107 148q0 70 18 133t53.5 116t96.5 84t139 31t142 -14zM418 443q-42 11 -82 11q-61 0 -108 -27.5t-73 -73.5t-39 -97.5t-13 -105.5q0 -106 60 -106
q51 0 106 62.5t91 142.5t49 149z" />
    <glyph glyph-name="r" unicode="r" horiz-adv-x="348" 
d="M373 505l-12 -61q-37 10 -76.5 -23t-70 -87.5t-53 -113t-31.5 -104.5l-22 -116h-61l94 497h62q-11 -65 -57 -207l2 -1q25 55 46.5 93t49 71t60 46t69.5 6z" />
    <glyph glyph-name="s" unicode="s" horiz-adv-x="384" 
d="M348 497l-12 -54q-38 12 -81 12q-54 0 -84 -24t-30 -62q0 -30 26 -57t57 -45t57 -49.5t26 -69.5q0 -65 -55 -110.5t-150 -45.5q-46 0 -83 6l12 61q44 -13 84 -13q58 0 93 24t35 69q0 29 -26 55t-57 44t-57 50.5t-26 73.5q0 62 49 102.5t136 40.5q46 0 86 -8z" />
    <glyph glyph-name="t" unicode="t" horiz-adv-x="362" 
d="M370 497l-10 -50h-148l-54 -285q-12 -67 -1.5 -90t51.5 -23q40 0 74 8l-2 -55q-49 -9 -86 -9q-73 0 -95 36t-6 119l57 299h-112l10 50h112l32 168l66 16l-36 -184h148z" />
    <glyph glyph-name="u" unicode="u" horiz-adv-x="566" 
d="M520 497l-94 -497h-63q11 65 62 225l-2 1q-41 -100 -104 -167.5t-140 -67.5q-66 0 -92 44.5t-10 126.5l65 335h61l-61 -322q-13 -67 0 -99t53 -32q51 0 105.5 62t90.5 142t49 148l19 101h61z" />
    <glyph glyph-name="v" unicode="v" horiz-adv-x="457" 
d="M486 494l-270 -494h-65l-90 497h68l56 -346q8 -49 10 -81h1l234 447z" />
    <glyph glyph-name="w" unicode="w" horiz-adv-x="769" 
d="M793 495l-251 -495h-73l-47 330q-8 60 -9 92h-1l-209 -422h-76l-56 497h67l30 -320q8 -88 8 -108h1l213 428h73l44 -319q9 -73 11 -110h1l217 449z" />
    <glyph glyph-name="x" unicode="x" horiz-adv-x="505" 
d="M518 482l-228 -234l137 -248h-76l-107 204l-217 -227l-44 39l234 236l-130 245h74l102 -201l212 222z" />
    <glyph glyph-name="y" unicode="y" horiz-adv-x="467" 
d="M485 498q-212 -496 -385 -669q-87 -87 -170 -87q-39 0 -67 7l12 60q27 -10 63 -10q61 0 122 69q64 71 64 181q0 193 -70 448h71q60 -240 60 -415q0 -31 -9 -76h1q123 210 250 511z" />
    <glyph glyph-name="z" unicode="z" horiz-adv-x="426" 
d="M416 497l-8 -43l-321 -398q64 2 141 2h110l-12 -58h-325l8 44l322 399q-70 -2 -137 -2h-104l11 56h315z" />
    <glyph glyph-name="braceleft" unicode="{" horiz-adv-x="320" 
d="M389 767l-8 -47q-54 0 -79.5 -27.5t-38.5 -96.5l-27 -138q-24 -128 -119 -140v-2q43 -7 59.5 -42.5t5.5 -93.5l-39 -203q-14 -69 1.5 -96t67.5 -27l-9 -49h-16q-137 0 -101 176l40 203q11 57 -8 81t-79 28l11 52q64 4 90.5 26t37.5 82l26 139q34 175 168 175h17z" />
    <glyph glyph-name="bar" unicode="|" horiz-adv-x="281" 
d="M165 -250h-50v1000h50v-1000z" />
    <glyph glyph-name="braceright" unicode="}" horiz-adv-x="321" 
d="M316 345l-10 -52q-64 -4 -90.5 -26.5t-37.5 -82.5l-39 -202q-17 -91 -55.5 -133.5t-111.5 -42.5h-17l9 49q54 0 79 27t38 96l38 202q26 128 120 140v2q-43 7 -60 42.5t-5 93.5l27 139q14 69 -1.5 96.5t-67.5 27.5l9 47h13q73 0 96.5 -48.5t7.5 -126.5l-28 -140
q-12 -57 7.5 -80.5t78.5 -27.5z" />
    <glyph glyph-name="asciitilde" unicode="~" horiz-adv-x="583" 
d="M527 269q-65 -58 -131 -58q-55 0 -119 34.5t-100 34.5q-46 0 -99 -44l-19 45q61 52 126 52q53 0 115.5 -34t105.5 -34q45 0 99 48z" />
    <glyph glyph-name="nbspace" unicode="&#xa0;" horiz-adv-x="400" 
 />
    <glyph glyph-name="exclamdown" unicode="&#xa1;" horiz-adv-x="293" 
d="M189 345l-93 -547h-72l115 547h50zM232 459q0 -20 -14 -33.5t-34 -13.5t-33 13t-13 33t13.5 34t33.5 14t33.5 -13.5t13.5 -33.5z" />
    <glyph glyph-name="cent" unicode="&#xa2;" horiz-adv-x="447" 
d="M451 495l-20 -53q-46 24 -109 24q-94 0 -153.5 -69.5t-59.5 -173.5q0 -127 132 -127q72 0 134 31l-2 -56q-55 -26 -121 -30l-21 -109h-51l21 109q-75 6 -116 49.5t-41 120.5q0 131 70.5 211.5t176.5 93.5l17 91h52l-17 -89q60 -2 108 -23z" />
    <glyph glyph-name="sterling" unicode="&#xa3;" horiz-adv-x="489" 
d="M487 700l-11 -54q-36 10 -72 10q-106 0 -128 -118q-6 -33 -14 -145h151l-8 -49h-148q-10 -110 -38 -169t-114 -122q33 3 84 3h198l-10 -56h-364l8 46q109 85 137 134t37 164h-116l10 49h110q12 132 15 148q32 166 200 166q41 0 73 -7z" />
    <glyph glyph-name="currency" unicode="&#xa4;" horiz-adv-x="565" 
d="M520 497l-106 -555q-38 -201 -277 -201q-69 0 -128 18l14 65q60 -26 132 -26q86 0 135 39t67 132q22 117 68 257h-2q-41 -100 -104 -167.5t-140 -67.5q-66 0 -92 44.5t-10 126.5l64 335h62l-62 -323q-25 -130 54 -130q51 0 105.5 62t90.5 141.5t49 148.5l18 101h62z" />
    <glyph glyph-name="yen" unicode="&#xa5;" horiz-adv-x="573" 
d="M577 675l-273 -397h153l-9 -47h-168l-15 -77h168l-8 -47h-169l-20 -107h-62l19 107h-167l8 47h168l16 77h-169l9 47h153l-116 397h67l70 -250q15 -50 31 -122h1q20 38 83 133l159 239h71z" />
    <glyph glyph-name="section" unicode="&#xa7;" horiz-adv-x="472" 
d="M425 738l-10 -56q-30 8 -57 8q-58 0 -85.5 -31.5t-27.5 -80.5q0 -35 21.5 -79.5t47.5 -81t47.5 -85.5t21.5 -92q0 -101 -87 -165q14 -30 14 -67q0 -72 -53 -124.5t-138 -52.5q-44 0 -67 10l12 59q26 -14 64 -14q53 0 84.5 32.5t31.5 80.5q0 33 -22 77.5t-48.5 81.5
t-49 86.5t-22.5 91.5q0 103 89 168q-11 28 -11 68q0 68 47 119t134 51q30 0 64 -4zM322 225q0 33 -15 67.5t-46 84.5t-45 79q-23 -15 -37.5 -43.5t-14.5 -57.5q0 -12 2.5 -24.5t5.5 -23.5t10.5 -27.5t12 -26t16.5 -30.5t17.5 -30.5t21.5 -35t22 -36.5q20 14 35 43.5t15 60.5
z" />
    <glyph glyph-name="dieresis" unicode="&#xa8;" 
d="M427 661q0 -20 -13 -33t-31 -13t-30 12.5t-12 29.5q0 19 13.5 31.5t31.5 12.5t29.5 -11.5t11.5 -28.5zM243 661q0 -20 -13 -33t-31 -13t-30 12t-12 29q0 20 13 32.5t31 12.5t30 -11.5t12 -28.5z" />
    <glyph glyph-name="copyright" unicode="&#xa9;" horiz-adv-x="737" 
d="M713 337q-2 -137 -101 -234t-236 -97q-142 0 -234.5 95t-90.5 234q3 137 102 233.5t237 96.5t232 -95.5t91 -232.5zM661 335q2 115 -78 198t-195 83q-116 0 -198.5 -81.5t-84.5 -197.5q-2 -117 77.5 -199.5t194.5 -82.5q116 0 199 82t85 198zM479 174q-42 -15 -96 -15
q-82 0 -119 46.5t-37 123.5q0 80 42 132.5t132 52.5q38 0 76 -12l-4 -49q-37 16 -78 16q-110 0 -110 -135q0 -128 106 -128q42 0 85 15z" />
    <glyph glyph-name="ordfeminine" unicode="&#xaa;" horiz-adv-x="372" 
d="M392 671q-41 -205 -59 -315h-55q6 32 32 108h-1q-53 -113 -143 -113q-80 0 -80 96t54 164t150 68q55 0 102 -8zM331 629q-23 6 -52 6q-63 0 -100.5 -53t-37.5 -122q0 -62 39 -62q48 0 89 59.5t57 141.5z" />
    <glyph glyph-name="guillemotleft" unicode="&#xab;" horiz-adv-x="476" 
d="M425 383l-125 -139l93 -136l-49 -32l-107 169l146 171zM243 384l-117 -140l84 -137l-49 -31l-98 169l137 171z" />
    <glyph glyph-name="logicalnot" unicode="&#xac;" horiz-adv-x="511" 
d="M459 75h-54v162h-364v53h418v-215z" />
    <glyph glyph-name="registered" unicode="&#xae;" horiz-adv-x="550" 
d="M535 531q-1 -86 -64.5 -148.5t-149.5 -62.5q-90 0 -149.5 60.5t-57.5 148.5q1 87 64.5 149t150.5 62q89 0 148 -60.5t58 -148.5zM487 528q2 69 -45 118.5t-115 49.5q-67 0 -115.5 -48t-50.5 -116q-1 -68 46 -118t114 -50q68 0 116.5 48.5t49.5 115.5zM413 416h-50
l-64 102h-3v-102h-40v231h70q77 0 77 -58q0 -29 -17 -46.5t-45 -20.5q17 -20 32 -43zM361 584q0 31 -39 31h-26v-71h16q26 0 37.5 12t11.5 28z" />
    <glyph glyph-name="macron" unicode="&#xaf;" horiz-adv-x="405" 
d="M394 677v-48h-221v48h221z" />
    <glyph glyph-name="degree" unicode="&#xb0;" horiz-adv-x="360" 
d="M378 617q-1 -52 -40.5 -85.5t-89.5 -33.5q-54 0 -84.5 31.5t-28.5 83.5q1 55 39.5 88t88.5 33q57 0 87 -33.5t28 -83.5zM325 616q1 29 -15 52t-53 23q-28 0 -48 -21t-21 -54q-1 -35 16.5 -55t47.5 -20t51 21t22 54z" />
    <glyph glyph-name="plusminus" unicode="&#xb1;" horiz-adv-x="564" 
d="M514 -50h-464v54h464v-54zM518 278h-206v-210h-60v210h-207v53h207v209h60v-209h206v-53z" />
    <glyph glyph-name="acute" unicode="&#xb4;" horiz-adv-x="377" 
d="M306 685l-137 -102l-28 35l130 111z" />
    <glyph glyph-name="mu" unicode="&#xb5;" horiz-adv-x="597" 
d="M551 497l-95 -497h-63q16 80 62 225l-2 1q-40 -99 -102.5 -167t-137.5 -68q-77 0 -99 49l-2 -1q0 -18 -19 -115l-32 -175h-62l143 748h61l-61 -321q-25 -132 83 -132q52 0 106.5 62.5t90 142t48.5 147.5l19 101h62z" />
    <glyph glyph-name="paragraph" unicode="&#xb6;" horiz-adv-x="552" 
d="M362 675l-79 -415q-86 -1 -129.5 43.5t-43.5 117.5q0 97 68.5 175.5t183.5 78.5zM567 675l-8 -47h-73l-139 -724h-133l9 47h74l137 724h133z" />
    <glyph glyph-name="periodcentered" unicode="&#xb7;" horiz-adv-x="205" 
d="M159 289q-1 -22 -16.5 -36.5t-36.5 -14.5q-22 0 -35.5 14.5t-11.5 35.5q1 22 17 37t37 15t34.5 -15t11.5 -36z" />
    <glyph glyph-name="cedilla" unicode="&#xb8;" horiz-adv-x="392" 
d="M226 -51q26 -103 -114 -186l-23 31q101 69 73 155h64z" />
    <glyph glyph-name="ordmasculine" unicode="&#xba;" horiz-adv-x="408" 
d="M407 568q0 -103 -57.5 -160t-133.5 -57q-118 0 -118 112q0 89 51 154t133 65q125 0 125 -114zM344 559q0 74 -67 74q-58 0 -87 -50.5t-29 -107.5q0 -73 63 -73q53 0 86.5 45t33.5 112z" />
    <glyph glyph-name="guillemotright" unicode="&#xbb;" horiz-adv-x="476" 
d="M423 247l-137 -172l-43 32l117 140l-84 137l49 31zM249 247l-146 -172l-42 33l125 139l-93 136l49 32z" />
    <glyph glyph-name="questiondown" unicode="&#xbf;" horiz-adv-x="408" 
d="M321 459q0 -20 -14 -33.5t-34 -13.5q-19 0 -32.5 13t-13.5 33t13.5 34t33.5 14t33.5 -13.5t13.5 -33.5zM292 345q7 -51 -5 -93.5t-34.5 -69.5t-50 -53.5t-52.5 -46.5t-42 -48t-17 -58q-1 -46 45 -80.5t120 -44.5l-19 -58q-101 12 -158.5 63t-56.5 117q1 37 18.5 69
t43 53.5t54 47.5t51.5 50.5t35 64t6 87.5h62z" />
    <glyph glyph-name="Agrave" unicode="&#xc0;" horiz-adv-x="598" 
d="M533 0h-69l-27 172h-304l-95 -172h-70l378 675h67zM429 224l-50 286q-9 58 -13 96h-1q-20 -45 -47 -94l-158 -288h269zM443 769l-34 -35l-118 102l43 44z" />
    <glyph glyph-name="Aacute" unicode="&#xc1;" horiz-adv-x="598" 
d="M533 0h-69l-27 172h-304l-95 -172h-70l378 675h67zM429 224l-50 286q-9 58 -13 96h-1q-20 -45 -47 -94l-158 -288h269zM499 836l-137 -102l-28 35l130 111z" />
    <glyph glyph-name="Acircumflex" unicode="&#xc2;" horiz-adv-x="598" 
d="M533 0h-69l-27 172h-304l-95 -172h-70l378 675h67zM429 224l-50 286q-9 58 -13 96h-1q-20 -45 -47 -94l-158 -288h269zM523 776l-36 -37l-93 71l-103 -71l-28 34l137 97z" />
    <glyph glyph-name="Atilde" unicode="&#xc3;" horiz-adv-x="598" 
d="M533 0h-69l-27 172h-304l-95 -172h-70l378 675h67zM429 224l-50 286q-9 58 -13 96h-1q-20 -45 -47 -94l-158 -288h269zM559 794q-44 -36 -91 -36q-36 0 -77 23.5t-68 23.5q-37 0 -67 -30l-15 42q40 37 90 37q33 0 76 -23.5t68 -23.5q39 0 69 29z" />
    <glyph glyph-name="Adieresis" unicode="&#xc4;" horiz-adv-x="598" 
d="M533 0h-69l-27 172h-304l-95 -172h-70l378 675h67zM429 224l-50 286q-9 58 -13 96h-1q-20 -45 -47 -94l-158 -288h269zM533 793q0 -20 -13 -33t-31 -13t-30 12.5t-12 29.5q0 19 13.5 31.5t31.5 12.5t29.5 -11.5t11.5 -28.5zM349 793q0 -20 -13 -33t-31 -13t-30 12t-12 29
q0 20 13 32.5t31 12.5t30 -11.5t12 -28.5z" />
    <glyph glyph-name="Aring" unicode="&#xc5;" horiz-adv-x="598" 
d="M533 0h-69l-27 172h-304l-95 -172h-70l378 675h67zM429 224l-50 286q-9 58 -13 96h-1q-20 -45 -47 -94l-158 -288h269zM490 769q-2 -41 -34 -71.5t-74 -30.5q-43 0 -70.5 28.5t-24.5 72.5q2 42 34 71.5t74 29.5q43 0 70.5 -29t24.5 -71zM445 768q2 25 -13 42t-40 17
q-24 0 -41 -17t-19 -42q-2 -24 13.5 -41.5t39.5 -17.5q23 0 40.5 17.5t19.5 41.5z" />
    <glyph glyph-name="AE" unicode="&#xc6;" horiz-adv-x="753" 
d="M758 675l-10 -52h-258l-47 -249h248l-10 -51h-248l-52 -270h269l-10 -53h-331l33 173h-237l-125 -173h-72l494 675h356zM427 621h-2q-41 -63 -93 -134l-191 -262h212z" />
    <glyph glyph-name="Ccedilla" unicode="&#xc7;" horiz-adv-x="572" 
d="M592 660l-13 -60q-75 27 -153 27q-75 0 -134.5 -34t-94.5 -91.5t-53 -126.5t-18 -145q0 -86 43 -134t145 -48q86 0 169 38l-1 -57q-90 -37 -187 -37q-238 0 -238 229q0 92 25 174t72 146.5t120.5 102t164.5 37.5q79 0 153 -21zM318 -51q26 -103 -114 -186l-23 31
q101 69 73 155h64z" />
    <glyph glyph-name="Egrave" unicode="&#xc8;" horiz-adv-x="497" 
d="M502 675l-10 -52h-263l-48 -249h252l-10 -51h-251l-51 -270h263l-10 -53h-326l128 675h326zM402 769l-34 -35l-118 102l43 44z" />
    <glyph glyph-name="Eacute" unicode="&#xc9;" horiz-adv-x="497" 
d="M502 675l-10 -52h-263l-48 -249h252l-10 -51h-251l-51 -270h263l-10 -53h-326l128 675h326zM470 836l-137 -102l-28 35l130 111z" />
    <glyph glyph-name="Ecircumflex" unicode="&#xca;" horiz-adv-x="497" 
d="M502 675l-10 -52h-263l-48 -249h252l-10 -51h-251l-51 -270h263l-10 -53h-326l128 675h326zM478 776l-36 -37l-93 71l-103 -71l-28 34l137 97z" />
    <glyph glyph-name="Edieresis" unicode="&#xcb;" horiz-adv-x="497" 
d="M502 675l-10 -52h-263l-48 -249h252l-10 -51h-251l-51 -270h263l-10 -53h-326l128 675h326zM492 793q0 -20 -13 -33t-31 -13t-30 12.5t-12 29.5q0 19 13.5 31.5t31.5 12.5t29.5 -11.5t11.5 -28.5zM308 793q0 -20 -13 -33t-31 -13t-30 12t-12 29q0 20 13 32.5t31 12.5
t30 -11.5t12 -28.5z" />
    <glyph glyph-name="Igrave" unicode="&#xcc;" horiz-adv-x="251" 
d="M239 675l-128 -675h-63l128 675h63zM278 769l-34 -35l-118 102l43 44z" />
    <glyph glyph-name="Iacute" unicode="&#xcd;" horiz-adv-x="251" 
d="M239 675l-128 -675h-63l128 675h63zM329 836l-137 -102l-28 35l130 111z" />
    <glyph glyph-name="Icircumflex" unicode="&#xce;" horiz-adv-x="251" 
d="M239 675l-128 -675h-63l128 675h63zM354 776l-36 -37l-93 71l-103 -71l-28 34l137 97z" />
    <glyph glyph-name="Idieresis" unicode="&#xcf;" horiz-adv-x="251" 
d="M239 675l-128 -675h-63l128 675h63zM356 793q0 -20 -13 -33t-31 -13t-30 12.5t-12 29.5q0 19 13.5 31.5t31.5 12.5t29.5 -11.5t11.5 -28.5zM172 793q0 -20 -13 -33t-31 -13t-30 12t-12 29q0 20 13 32.5t31 12.5t30 -11.5t12 -28.5z" />
    <glyph glyph-name="Ntilde" unicode="&#xd1;" horiz-adv-x="690" 
d="M678 675l-129 -675h-74l-203 467q-38 87 -54 141q-17 -115 -49 -294l-59 -314h-63l128 675h75l202 -464q32 -74 55 -141q16 100 47 271l60 334h64zM606 794q-44 -36 -91 -36q-35 0 -77 23.5t-68 23.5q-37 0 -67 -30l-15 42q40 37 90 37q33 0 76 -23.5t68 -23.5
q39 0 69 29z" />
    <glyph glyph-name="Ograve" unicode="&#xd2;" horiz-adv-x="692" 
d="M673 440q0 -191 -111.5 -319.5t-271.5 -128.5q-117 0 -176.5 63t-59.5 181q0 186 110 316.5t271 130.5q114 0 176 -63.5t62 -179.5zM604 433q0 93 -45.5 144.5t-134.5 51.5q-128 0 -214.5 -112.5t-86.5 -272.5q0 -91 45.5 -144t128.5 -53q126 0 216.5 111.5t90.5 274.5z
M504 769l-34 -35l-118 102l43 44z" />
    <glyph glyph-name="Oacute" unicode="&#xd3;" horiz-adv-x="692" 
d="M673 440q0 -191 -111.5 -319.5t-271.5 -128.5q-117 0 -176.5 63t-59.5 181q0 186 110 316.5t271 130.5q114 0 176 -63.5t62 -179.5zM604 433q0 93 -45.5 144.5t-134.5 51.5q-128 0 -214.5 -112.5t-86.5 -272.5q0 -91 45.5 -144t128.5 -53q126 0 216.5 111.5t90.5 274.5z
M579 836l-137 -102l-28 35l130 111z" />
    <glyph glyph-name="Ocircumflex" unicode="&#xd4;" horiz-adv-x="692" 
d="M673 440q0 -191 -111.5 -319.5t-271.5 -128.5q-117 0 -176.5 63t-59.5 181q0 186 110 316.5t271 130.5q114 0 176 -63.5t62 -179.5zM604 433q0 93 -45.5 144.5t-134.5 51.5q-128 0 -214.5 -112.5t-86.5 -272.5q0 -91 45.5 -144t128.5 -53q126 0 216.5 111.5t90.5 274.5z
M605 776l-36 -37l-93 71l-103 -71l-28 34l137 97z" />
    <glyph glyph-name="Otilde" unicode="&#xd5;" horiz-adv-x="692" 
d="M673 440q0 -191 -111.5 -319.5t-271.5 -128.5q-117 0 -176.5 63t-59.5 181q0 186 110 316.5t271 130.5q114 0 176 -63.5t62 -179.5zM604 433q0 93 -45.5 144.5t-134.5 51.5q-128 0 -214.5 -112.5t-86.5 -272.5q0 -91 45.5 -144t128.5 -53q126 0 216.5 111.5t90.5 274.5z
M623 794q-44 -36 -91 -36q-36 0 -77 23.5t-68 23.5q-37 0 -67 -30l-15 42q40 37 90 37q33 0 76 -23.5t68 -23.5q39 0 69 29z" />
    <glyph glyph-name="Odieresis" unicode="&#xd6;" horiz-adv-x="692" 
d="M673 440q0 -191 -111.5 -319.5t-271.5 -128.5q-117 0 -176.5 63t-59.5 181q0 186 110 316.5t271 130.5q114 0 176 -63.5t62 -179.5zM604 433q0 93 -45.5 144.5t-134.5 51.5q-128 0 -214.5 -112.5t-86.5 -272.5q0 -91 45.5 -144t128.5 -53q126 0 216.5 111.5t90.5 274.5z
M599 793q0 -20 -13 -33t-31 -13t-30 12.5t-12 29.5q0 19 13.5 31.5t31.5 12.5t29.5 -11.5t11.5 -28.5zM415 793q0 -20 -13 -33t-31 -13t-30 12t-12 29q0 20 13 32.5t31 12.5t30 -11.5t12 -28.5z" />
    <glyph glyph-name="Oslash" unicode="&#xd8;" horiz-adv-x="692" 
d="M673 440q0 -191 -111.5 -319.5t-271.5 -128.5q-50 0 -89 12l-57 -102l-46 23l55 98q-99 58 -99 213q0 186 109.5 316.5t270.5 130.5q47 0 81 -10l53 95l46 -23l-51 -90q110 -57 110 -215zM604 433q0 119 -71 166l-302 -541q30 -12 71 -10q124 2 213 113t89 272zM486 621
q-30 8 -66 8q-83 -1 -152 -53.5t-107.5 -140t-38.5 -191.5q0 -112 65 -161z" />
    <glyph glyph-name="Ugrave" unicode="&#xd9;" horiz-adv-x="685" 
d="M673 675l-81 -428q-48 -255 -302 -255q-70 0 -116.5 18t-66 49.5t-25 74.5t5.5 92l86 449h63l-86 -448q-18 -93 15.5 -138t132.5 -45q98 0 154 48t78 164l80 419h62zM494 769l-34 -35l-118 102l43 44z" />
    <glyph glyph-name="Uacute" unicode="&#xda;" horiz-adv-x="685" 
d="M673 675l-81 -428q-48 -255 -302 -255q-70 0 -116.5 18t-66 49.5t-25 74.5t5.5 92l86 449h63l-86 -448q-18 -93 15.5 -138t132.5 -45q98 0 154 48t78 164l80 419h62zM557 836l-137 -102l-28 35l130 111z" />
    <glyph glyph-name="Ucircumflex" unicode="&#xdb;" horiz-adv-x="685" 
d="M673 675l-81 -428q-48 -255 -302 -255q-70 0 -116.5 18t-66 49.5t-25 74.5t5.5 92l86 449h63l-86 -448q-18 -93 15.5 -138t132.5 -45q98 0 154 48t78 164l80 419h62zM580 776l-36 -37l-93 71l-103 -71l-28 34l137 97z" />
    <glyph glyph-name="Udieresis" unicode="&#xdc;" horiz-adv-x="685" 
d="M673 675l-81 -428q-48 -255 -302 -255q-70 0 -116.5 18t-66 49.5t-25 74.5t5.5 92l86 449h63l-86 -448q-18 -93 15.5 -138t132.5 -45q98 0 154 48t78 164l80 419h62zM574 793q0 -20 -13 -33t-31 -13t-30 12.5t-12 29.5q0 19 13.5 31.5t31.5 12.5t29.5 -11.5t11.5 -28.5z
M390 793q0 -20 -13 -33t-31 -13t-30 12t-12 29q0 20 13 32.5t31 12.5t30 -11.5t12 -28.5z" />
    <glyph glyph-name="germandbls" unicode="&#xdf;" horiz-adv-x="552" 
d="M526 631q0 -36 -13.5 -64t-33.5 -44t-43.5 -32t-43.5 -29t-33.5 -34t-13.5 -47t13.5 -49.5t32.5 -42t38.5 -37.5t33 -46t13.5 -58q0 -67 -55 -111.5t-142 -44.5q-43 0 -81 6l12 61q42 -13 78 -13q58 0 90.5 25t32.5 69q0 25 -13.5 48t-32.5 41.5t-38 37.5t-32.5 45.5
t-13.5 57.5q0 40 18.5 70t45 48.5t53 35.5t45 41t18.5 56q0 31 -21.5 49t-61.5 18q-137 0 -171 -179l-103 -542q-25 -126 -77 -176t-144 -50q-26 0 -70 8l15 56q31 -10 70 -10q61 0 92.5 35.5t50.5 135.5l102 538q24 121 84.5 177.5t159.5 56.5q66 0 102.5 -30t36.5 -77z
" />
    <glyph glyph-name="agrave" unicode="&#xe0;" 
d="M488 489q-68 -349 -93 -489h-64q11 60 65 233l-2 1q-16 -38 -34.5 -72.5t-49.5 -77t-73.5 -68t-90.5 -25.5q-107 0 -107 148q0 70 18 133t53.5 116t96.5 84t139 31t142 -14zM418 443q-42 11 -82 11q-61 0 -108 -27.5t-73 -73.5t-39 -97.5t-13 -105.5q0 -106 59 -106
q52 0 107 62.5t91 142.5t49 149zM411 618l-34 -35l-118 102l43 44z" />
    <glyph glyph-name="aacute" unicode="&#xe1;" 
d="M488 489q-68 -349 -93 -489h-64q11 60 65 233l-2 1q-16 -38 -34.5 -72.5t-49.5 -77t-73.5 -68t-90.5 -25.5q-107 0 -107 148q0 70 18 133t53.5 116t96.5 84t139 31t142 -14zM418 443q-42 11 -82 11q-61 0 -108 -27.5t-73 -73.5t-39 -97.5t-13 -105.5q0 -106 59 -106
q52 0 107 62.5t91 142.5t49 149zM494 685l-137 -102l-28 35l130 111z" />
    <glyph glyph-name="acircumflex" unicode="&#xe2;" 
d="M488 489q-68 -349 -93 -489h-64q11 60 65 233l-2 1q-16 -38 -34.5 -72.5t-49.5 -77t-73.5 -68t-90.5 -25.5q-107 0 -107 148q0 70 18 133t53.5 116t96.5 84t139 31t142 -14zM418 443q-42 11 -82 11q-61 0 -108 -27.5t-73 -73.5t-39 -97.5t-13 -105.5q0 -106 59 -106
q52 0 107 62.5t91 142.5t49 149zM494 625l-36 -37l-93 71l-103 -71l-28 34l137 97z" />
    <glyph glyph-name="atilde" unicode="&#xe3;" 
d="M488 489q-68 -349 -93 -489h-64q11 60 65 233l-2 1q-16 -38 -34.5 -72.5t-49.5 -77t-73.5 -68t-90.5 -25.5q-107 0 -107 148q0 70 18 133t53.5 116t96.5 84t139 31t142 -14zM418 443q-42 11 -82 11q-61 0 -108 -27.5t-73 -73.5t-39 -97.5t-13 -105.5q0 -106 59 -106
q52 0 107 62.5t91 142.5t49 149zM524 643q-44 -36 -91 -36q-35 0 -77 23.5t-68 23.5q-37 0 -67 -30l-15 42q40 37 90 37q33 0 76 -23.5t68 -23.5q39 0 69 29z" />
    <glyph glyph-name="adieresis" unicode="&#xe4;" 
d="M488 489q-68 -349 -93 -489h-64q11 60 65 233l-2 1q-16 -38 -34.5 -72.5t-49.5 -77t-73.5 -68t-90.5 -25.5q-107 0 -107 148q0 70 18 133t53.5 116t96.5 84t139 31t142 -14zM418 443q-42 11 -82 11q-61 0 -108 -27.5t-73 -73.5t-39 -97.5t-13 -105.5q0 -106 59 -106
q52 0 107 62.5t91 142.5t49 149zM486 661q0 -20 -13 -33t-31 -13t-30 12.5t-12 29.5q0 19 13.5 31.5t31.5 12.5t29.5 -11.5t11.5 -28.5zM302 661q0 -20 -13 -33t-31 -13t-30 12t-12 29q0 20 13 32.5t31 12.5t30 -11.5t12 -28.5z" />
    <glyph glyph-name="aring" unicode="&#xe5;" 
d="M488 489q-68 -349 -93 -489h-64q11 60 65 233l-2 1q-16 -38 -34.5 -72.5t-49.5 -77t-73.5 -68t-90.5 -25.5q-107 0 -107 148q0 70 18 133t53.5 116t96.5 84t139 31t142 -14zM418 443q-42 11 -82 11q-61 0 -108 -27.5t-73 -73.5t-39 -97.5t-13 -105.5q0 -106 59 -106
q52 0 107 62.5t91 142.5t49 149zM485 660q-2 -41 -34 -71.5t-74 -30.5q-43 0 -70.5 28.5t-24.5 72.5q2 42 34 71.5t74 29.5q43 0 70.5 -29t24.5 -71zM440 659q2 25 -13 42t-40 17q-24 0 -41 -17t-19 -42q-2 -24 13.5 -41.5t39.5 -17.5q23 0 40.5 17.5t19.5 41.5z" />
    <glyph glyph-name="ae" unicode="&#xe6;" horiz-adv-x="765" 
d="M738 398q0 -72 -71 -114t-259 -53q-6 -36 -6 -72q0 -67 26 -90.5t93 -23.5q71 0 137 29v-53q-69 -29 -161 -29q-75 0 -109.5 31.5t-44.5 89.5q-25 -48 -80.5 -84.5t-121.5 -36.5q-59 0 -89 26t-30 71q0 42 18 74t46.5 52t73.5 33.5t89.5 20t104.5 10.5l8 38q15 70 -5 104
t-84 34q-79 0 -154 -45v58q88 38 164 38q70 0 100.5 -23.5t40.5 -64.5q29 36 76 61.5t103 25.5q67 0 101 -30t34 -77zM673 391q0 31 -21.5 48t-56.5 17q-64 0 -109 -48t-67 -125q64 5 105 11t78 17.5t54 31t17 48.5zM344 228q-61 -4 -103 -10.5t-79 -19.5t-55.5 -36
t-18.5 -56q0 -28 19 -45t48 -17q68 0 121 54t68 130z" />
    <glyph glyph-name="ccedilla" unicode="&#xe7;" horiz-adv-x="418" 
d="M429 486l-14 -54q-49 22 -102 22q-66 0 -115 -46.5t-70.5 -110t-21.5 -130.5q0 -119 115 -119q67 0 125 29l-2 -56q-68 -27 -139 -27q-166 0 -166 158q0 148 76 250t205 102q57 0 109 -18zM222 -51q26 -103 -114 -186l-23 31q101 69 73 155h64z" />
    <glyph glyph-name="egrave" unicode="&#xe8;" horiz-adv-x="470" 
d="M444 398q0 -155 -330 -168q-6 -34 -6 -71q0 -67 25.5 -90.5t92.5 -23.5q72 0 138 29v-53q-69 -29 -161 -29q-81 0 -121 36t-40 120q0 93 30 173t92 132t145 52q66 0 100.5 -30t34.5 -77zM379 391q0 31 -21.5 48t-56.5 17q-64 0 -109.5 -48t-66.5 -125q133 5 193.5 31.5
t60.5 76.5zM379 618l-34 -35l-118 102l43 44z" />
    <glyph glyph-name="eacute" unicode="&#xe9;" horiz-adv-x="470" 
d="M444 398q0 -155 -330 -168q-6 -34 -6 -71q0 -67 25.5 -90.5t92.5 -23.5q72 0 138 29v-53q-69 -29 -161 -29q-81 0 -121 36t-40 120q0 93 30 173t92 132t145 52q66 0 100.5 -30t34.5 -77zM379 391q0 31 -21.5 48t-56.5 17q-64 0 -109.5 -48t-66.5 -125q133 5 193.5 31.5
t60.5 76.5zM450 685l-137 -102l-28 35l130 111z" />
    <glyph glyph-name="ecircumflex" unicode="&#xea;" horiz-adv-x="470" 
d="M444 398q0 -155 -330 -168q-6 -34 -6 -71q0 -67 25.5 -90.5t92.5 -23.5q72 0 138 29v-53q-69 -29 -161 -29q-81 0 -121 36t-40 120q0 93 30 173t92 132t145 52q66 0 100.5 -30t34.5 -77zM379 391q0 31 -21.5 48t-56.5 17q-64 0 -109.5 -48t-66.5 -125q133 5 193.5 31.5
t60.5 76.5zM453 625l-36 -37l-93 71l-103 -71l-28 34l137 97z" />
    <glyph glyph-name="edieresis" unicode="&#xeb;" horiz-adv-x="470" 
d="M444 398q0 -155 -330 -168q-6 -34 -6 -71q0 -67 25.5 -90.5t92.5 -23.5q72 0 138 29v-53q-69 -29 -161 -29q-81 0 -121 36t-40 120q0 93 30 173t92 132t145 52q66 0 100.5 -30t34.5 -77zM379 391q0 31 -21.5 48t-56.5 17q-64 0 -109.5 -48t-66.5 -125q133 5 193.5 31.5
t60.5 76.5zM471 661q0 -20 -13 -33t-31 -13t-30 12.5t-12 29.5q0 19 13.5 31.5t31.5 12.5t29.5 -11.5t11.5 -28.5zM287 661q0 -20 -13 -33t-31 -13t-30 12t-12 29q0 20 13 32.5t31 12.5t30 -11.5t12 -28.5z" />
    <glyph glyph-name="igrave" unicode="&#xec;" horiz-adv-x="249" 
d="M251 618l-34 -35l-118 102l43 44zM203 497l-95 -497h-61l95 497h61z" />
    <glyph glyph-name="iacute" unicode="&#xed;" horiz-adv-x="249" 
d="M291 685l-136 -102l-29 35l130 111zM203 497l-95 -497h-61l95 497h61z" />
    <glyph glyph-name="icircumflex" unicode="&#xee;" horiz-adv-x="249" 
d="M327 625l-35 -37l-93 71l-103 -71l-28 34l137 97zM203 497l-95 -497h-61l95 497h61z" />
    <glyph glyph-name="idieresis" unicode="&#xef;" horiz-adv-x="249" 
d="M336 661q0 -20 -13 -33t-31 -13t-30 12.5t-12 29.5q0 19 13 31.5t31 12.5t30 -11.5t12 -28.5zM151 661q0 -20 -13 -33t-31 -13t-30 12t-12 29q0 20 13 32.5t32 12.5q18 0 29.5 -11.5t11.5 -28.5zM203 497l-95 -497h-61l95 497h61z" />
    <glyph glyph-name="ntilde" unicode="&#xf1;" horiz-adv-x="566" 
d="M490 335l-64 -335h-62l61 322q26 131 -53 131q-51 0 -105.5 -62t-90.5 -142t-49 -148l-19 -101h-61l94 497h64q-14 -72 -63 -225l2 -1q41 100 104 167.5t140 67.5q66 0 91.5 -44.5t10.5 -126.5zM520 643q-44 -36 -91 -36q-35 0 -77 23.5t-68 23.5q-37 0 -67 -30l-15 42
q40 37 90 37q33 0 76 -23.5t68 -23.5q39 0 69 29z" />
    <glyph glyph-name="ograve" unicode="&#xf2;" 
d="M499 328q0 -149 -85 -242.5t-199 -93.5q-86 0 -130 44.5t-44 130.5q0 145 79 241.5t201 96.5q89 0 133.5 -47.5t44.5 -129.5zM433 322q0 131 -121 131q-89 0 -147.5 -81.5t-58.5 -192.5q0 -134 121 -134q82 0 144 77.5t62 199.5zM397 618l-34 -35l-118 102l43 44z" />
    <glyph glyph-name="oacute" unicode="&#xf3;" 
d="M499 328q0 -149 -85 -242.5t-199 -93.5q-86 0 -130 44.5t-44 130.5q0 145 79 241.5t201 96.5q89 0 133.5 -47.5t44.5 -129.5zM433 322q0 131 -121 131q-89 0 -147.5 -81.5t-58.5 -192.5q0 -134 121 -134q82 0 144 77.5t62 199.5zM469 685l-137 -102l-28 35l130 111z" />
    <glyph glyph-name="ocircumflex" unicode="&#xf4;" 
d="M499 328q0 -149 -85 -242.5t-199 -93.5q-86 0 -130 44.5t-44 130.5q0 145 79 241.5t201 96.5q89 0 133.5 -47.5t44.5 -129.5zM433 322q0 131 -121 131q-89 0 -147.5 -81.5t-58.5 -192.5q0 -134 121 -134q82 0 144 77.5t62 199.5zM486 625l-36 -37l-93 71l-103 -71l-28 34
l137 97z" />
    <glyph glyph-name="otilde" unicode="&#xf5;" 
d="M499 328q0 -149 -85 -242.5t-199 -93.5q-86 0 -130 44.5t-44 130.5q0 145 79 241.5t201 96.5q89 0 133.5 -47.5t44.5 -129.5zM433 322q0 131 -121 131q-89 0 -147.5 -81.5t-58.5 -192.5q0 -134 121 -134q82 0 144 77.5t62 199.5zM510 643q-44 -36 -91 -36q-35 0 -77 23.5
t-68 23.5q-37 0 -67 -30l-15 42q40 37 90 37q33 0 76 -23.5t68 -23.5q39 0 69 29z" />
    <glyph glyph-name="odieresis" unicode="&#xf6;" 
d="M499 328q0 -149 -85 -242.5t-199 -93.5q-86 0 -130 44.5t-44 130.5q0 145 79 241.5t201 96.5q89 0 133.5 -47.5t44.5 -129.5zM433 322q0 131 -121 131q-89 0 -147.5 -81.5t-58.5 -192.5q0 -134 121 -134q82 0 144 77.5t62 199.5zM488 661q0 -20 -13 -33t-31 -13t-30 12.5
t-12 29.5q0 19 13.5 31.5t31.5 12.5t29.5 -11.5t11.5 -28.5zM304 661q0 -20 -13 -33t-31 -13t-30 12t-12 29q0 20 13 32.5t31 12.5t30 -11.5t12 -28.5z" />
    <glyph glyph-name="divide" unicode="&#xf7;" horiz-adv-x="575" 
d="M335 459q0 -20 -14 -34t-34 -14t-33.5 14t-13.5 34t14 34t33 14q20 0 34 -14t14 -34zM529 231h-484v54h484v-54zM335 55q0 -20 -14 -33.5t-34 -13.5q-19 0 -33 14t-14 33q0 20 13.5 34t33.5 14t34 -14t14 -34z" />
    <glyph glyph-name="oslash" unicode="&#xf8;" 
d="M502 328q0 -149 -85 -242.5t-200 -93.5q-37 0 -66 9l-58 -102l-43 23l56 100q-63 43 -63 145q0 144 79 241t202 97q25 0 52 -5l55 97l42 -22l-51 -91q80 -43 80 -156zM437 322q0 78 -45 110l-213 -380q24 -9 54 -8q81 1 142.5 79t61.5 199zM348 451q-17 3 -36 3
q-88 -1 -146.5 -82t-58.5 -192q0 -68 31 -102z" />
    <glyph glyph-name="ugrave" unicode="&#xf9;" horiz-adv-x="566" 
d="M520 497l-94 -497h-63q11 65 62 225l-2 1q-41 -100 -104 -167.5t-140 -67.5q-66 0 -92 44.5t-10 126.5l65 335h61l-61 -322q-13 -67 0 -99t53 -32q51 0 105.5 62t90.5 142t49 148l19 101h61zM405 618l-34 -35l-118 102l43 44z" />
    <glyph glyph-name="uacute" unicode="&#xfa;" horiz-adv-x="566" 
d="M520 497l-94 -497h-63q11 65 62 225l-2 1q-41 -100 -104 -167.5t-140 -67.5q-66 0 -92 44.5t-10 126.5l65 335h61l-61 -322q-13 -67 0 -99t53 -32q51 0 105.5 62t90.5 142t49 148l19 101h61zM463 685l-137 -102l-28 35l130 111z" />
    <glyph glyph-name="ucircumflex" unicode="&#xfb;" horiz-adv-x="566" 
d="M520 497l-94 -497h-63q11 65 62 225l-2 1q-41 -100 -104 -167.5t-140 -67.5q-66 0 -92 44.5t-10 126.5l65 335h61l-61 -322q-13 -67 0 -99t53 -32q51 0 105.5 62t90.5 142t49 148l19 101h61zM482 625l-36 -37l-93 71l-103 -71l-28 34l137 97z" />
    <glyph glyph-name="udieresis" unicode="&#xfc;" horiz-adv-x="566" 
d="M520 497l-94 -497h-63q11 65 62 225l-2 1q-41 -100 -104 -167.5t-140 -67.5q-66 0 -92 44.5t-10 126.5l65 335h61l-61 -322q-13 -67 0 -99t53 -32q51 0 105.5 62t90.5 142t49 148l19 101h61zM497 661q0 -20 -13 -33t-31 -13t-30 12.5t-12 29.5q0 19 13.5 31.5t31.5 12.5
t29.5 -11.5t11.5 -28.5zM313 661q0 -20 -13 -33t-31 -13t-30 12t-12 29q0 20 13 32.5t31 12.5t30 -11.5t12 -28.5z" />
    <glyph glyph-name="ydieresis" unicode="&#xff;" horiz-adv-x="467" 
d="M485 498q-212 -496 -385 -669q-87 -87 -170 -87q-39 0 -67 7l12 60q27 -10 63 -10q61 0 122 69q64 71 64 181q0 193 -70 448h71q60 -240 60 -415q0 -31 -9 -76h1q123 210 250 511zM416 661q0 -20 -13 -33t-31 -13t-30 12.5t-12 29.5q0 19 13.5 31.5t31.5 12.5t29.5 -11.5
t11.5 -28.5zM232 661q0 -20 -13 -33t-31 -13t-30 12t-12 29q0 20 13 32.5t31 12.5t30 -11.5t12 -28.5z" />
    <glyph glyph-name="dotlessi" unicode="&#x131;" horiz-adv-x="249" 
d="M207 497l-95 -497h-62l95 497h62z" />
    <glyph glyph-name="OE" unicode="&#x152;" horiz-adv-x="823" 
d="M828 675l-10 -52h-263l-47 -249h250l-9 -51h-251l-52 -270h264l-10 -53h-270q-28 0 -73 -2.5t-63 -2.5q-240 0 -240 238q0 189 108.5 317.5t272.5 128.5q23 0 64 -2t58 -2h271zM492 621q-36 6 -69 6q-127 0 -213.5 -111t-86.5 -269q0 -95 45 -146t135 -51q50 0 81 7z" />
    <glyph glyph-name="oe" unicode="&#x153;" horiz-adv-x="843" 
d="M816 398q0 -155 -330 -168q-6 -34 -6 -71q0 -67 26 -90.5t93 -23.5q71 0 137 29v-53q-69 -29 -161 -29q-67 0 -103.5 26t-48.5 82q-39 -51 -93.5 -79.5t-114.5 -28.5q-86 0 -130 44.5t-44 130.5q0 144 78.5 241t201.5 97q131 0 165 -109q73 109 195 109q67 0 101 -30
t34 -77zM751 391q0 31 -21.5 48t-56.5 17q-63 0 -109 -48t-67 -125q133 5 193.5 31.5t60.5 76.5zM433 322q0 131 -121 131q-89 0 -147.5 -81.5t-58.5 -192.5q0 -134 121 -134q82 0 144 77.5t62 199.5z" />
    <glyph glyph-name="Ydieresis" unicode="&#x178;" horiz-adv-x="508" 
d="M576 675l-293 -429l-47 -246h-63l47 246l-125 429h65l71 -251q16 -59 30 -122h1q19 35 84 133l157 240h73zM482 793q0 -20 -13 -33t-31 -13t-30 12.5t-12 29.5q0 19 13.5 31.5t31.5 12.5t29.5 -11.5t11.5 -28.5zM298 793q0 -20 -13 -33t-31 -13t-30 12t-12 29
q0 20 13 32.5t31 12.5t30 -11.5t12 -28.5z" />
    <glyph glyph-name="florin" unicode="&#x192;" horiz-adv-x="421" 
d="M490 731l-11 -53q-32 8 -68 8q-94 0 -129 -125l-39 -140h141l-11 -49h-145l-116 -412q-26 -94 -74.5 -134.5t-132.5 -40.5q-28 0 -64 6l12 54q27 -8 68 -8q49 0 80.5 31t49.5 95l115 409h-103l9 49h109l35 129q28 102 77 144.5t134 42.5q29 0 63 -6z" />
    <glyph glyph-name="circumflex" unicode="&#x2c6;" horiz-adv-x="429" 
d="M385 625l-36 -37l-93 71l-103 -71l-28 34l137 97z" />
    <glyph glyph-name="caron" unicode="&#x2c7;" horiz-adv-x="429" 
d="M380 685l-137 -97l-123 94l36 37l93 -71l103 71z" />
    <glyph glyph-name="breve" unicode="&#x2d8;" horiz-adv-x="411" 
d="M417 716q-9 -51 -45 -86t-93 -35q-56 0 -78 35t-13 86h43q-5 -30 9.5 -50.5t46.5 -20.5t53.5 19t28.5 52h48z" />
    <glyph glyph-name="dotaccent" unicode="&#x2d9;" horiz-adv-x="275" 
d="M259 657q-1 -19 -14.5 -32t-32.5 -13q-18 0 -30 13t-11 32q2 18 15.5 31.5t31.5 13.5t30 -13t11 -32z" />
    <glyph glyph-name="ring" unicode="&#x2da;" horiz-adv-x="387" 
d="M381 657q-2 -41 -34 -71.5t-74 -30.5q-43 0 -70.5 28.5t-24.5 72.5q2 42 34 71.5t74 29.5q43 0 70.5 -29t24.5 -71zM336 656q2 25 -13 42t-40 17q-24 0 -41 -17t-19 -42q-2 -24 13.5 -41.5t39.5 -17.5q23 0 40.5 17.5t19.5 41.5z" />
    <glyph glyph-name="ogonek" unicode="&#x2db;" horiz-adv-x="257" 
d="M134 -218q-27 -7 -58 -7q-80 0 -80 69q0 65 72 152h50q-64 -82 -64 -136t80 -34v-44z" />
    <glyph glyph-name="tilde" unicode="&#x2dc;" horiz-adv-x="506" 
d="M451 643q-44 -36 -91 -36q-36 0 -77.5 23.5t-67.5 23.5q-37 0 -67 -30l-15 42q40 37 90 37q33 0 76 -23.5t68 -23.5q39 0 69 29z" />
    <glyph glyph-name="hungarumlaut" unicode="&#x2dd;" horiz-adv-x="475" 
d="M493 686l-143 -103l-29 34l135 113zM319 691l-124 -108l-31 32l116 117z" />
    <glyph glyph-name="Delta" unicode="&#x394;" horiz-adv-x="715" 
d="M678 0h-641l282 700h72zM586 56l-234 580l-228 -580h462z" />
    <glyph glyph-name="Omega" unicode="&#x3a9;" horiz-adv-x="749" 
d="M675 0h-217v54q149 103 149 293q0 126 -59.5 207.5t-170.5 81.5q-109 0 -174 -78.5t-65 -205.5q0 -102 35.5 -172.5t115.5 -125.5v-54h-220v48h157q-73 47 -112.5 125t-39.5 176q0 150 84.5 243t220.5 93q133 0 213 -85.5t80 -242.5q0 -103 -42 -183.5t-113 -125.5h158
v-48z" />
    <glyph glyph-name="pi" unicode="&#x3c0;" horiz-adv-x="660" 
d="M626 497l-10 -50h-116l-48 -250q-19 -101 -13.5 -127.5t46.5 -26.5q30 0 54 8l-1 -50q-41 -9 -84 -9q-60 0 -75 34.5t1 107.5l59 313h-207l-84 -447h-61l85 447h-115l10 50h559z" />
    <glyph glyph-name="endash" unicode="&#x2013;" horiz-adv-x="500" 
d="M500 262h-500v54h500v-54z" />
    <glyph glyph-name="emdash" unicode="&#x2014;" horiz-adv-x="1000" 
d="M1000 262h-1000v54h1000v-54z" />
    <glyph glyph-name="quoteleft" unicode="&#x2018;" horiz-adv-x="223" 
d="M270 716q-98 -82 -69 -138q11 -20 -0.5 -40.5t-35.5 -20.5q-35 0 -43 35q-14 55 51 128q30 34 73 65z" />
    <glyph glyph-name="quoteright" unicode="&#x2019;" horiz-adv-x="223" 
d="M201 739q36 0 44 -36q13 -56 -54 -130q-29 -32 -70 -62l-24 29q98 83 68 138q-11 21 0.5 41t35.5 20z" />
    <glyph glyph-name="quotesinglbase" unicode="&#x201a;" horiz-adv-x="223" 
d="M70 88q36 0 44 -36q13 -56 -54 -130q-29 -32 -70 -62l-25 29q98 82 69 138q-11 21 0.5 41t35.5 20z" />
    <glyph glyph-name="quotedblleft" unicode="&#x201c;" horiz-adv-x="388" 
d="M437 716q-98 -82 -69 -138q11 -20 0 -40.5t-35 -20.5q-36 0 -44 36q-13 56 54 130q29 32 70 62zM270 716q-98 -82 -69 -138q11 -20 -0.5 -40.5t-35.5 -20.5q-35 0 -43 35q-14 55 51 128q30 34 73 65z" />
    <glyph glyph-name="quotedblright" unicode="&#x201d;" horiz-adv-x="388" 
d="M368 739q35 0 43 -35q13 -56 -53 -130q-30 -32 -71 -63l-24 29q97 83 69 138q-11 21 0 41t36 20zM201 739q36 0 44 -36q13 -56 -54 -130q-29 -32 -70 -62l-24 29q98 83 68 138q-11 21 0.5 41t35.5 20z" />
    <glyph glyph-name="quotedblbase" unicode="&#x201e;" horiz-adv-x="388" 
d="M237 88q36 0 44 -36q13 -56 -54 -130q-29 -32 -70 -62l-24 29q98 83 68 138q-11 21 0.5 41t35.5 20zM70 88q36 0 44 -36q13 -56 -54 -130q-29 -32 -70 -62l-25 29q98 82 69 138q-11 21 0.5 41t35.5 20z" />
    <glyph glyph-name="dagger" unicode="&#x2020;" horiz-adv-x="453" 
d="M459 502h-160l-14 -153l-87 -350h-37l46 350l45 153h-160l10 50h159l19 178h78l-49 -178h159z" />
    <glyph glyph-name="daggerdbl" unicode="&#x2021;" horiz-adv-x="453" 
d="M468 554l-8 -50h-160l-10 -132l-40 -131h160l-10 -50h-160l-21 -191h-78l52 191h-160l10 50h159l10 131l40 132h-160l10 50h159l19 176h78l-49 -176h159z" />
    <glyph glyph-name="bullet" unicode="&#x2022;" horiz-adv-x="423" 
d="M311 290q-3 -42 -34 -71.5t-72 -29.5t-68.5 29.5t-24.5 71.5q2 42 33.5 71.5t72.5 29.5t68 -29.5t25 -71.5z" />
    <glyph glyph-name="ellipsis" unicode="&#x2026;" horiz-adv-x="616" 
d="M518 41q-1 -20 -15.5 -34.5t-34.5 -14.5t-32.5 14.5t-11.5 34.5q2 20 16.5 34t33.5 14q20 0 33 -14t11 -34zM319 41q-2 -20 -16.5 -34.5t-34.5 -14.5t-33 14.5t-11 34.5t16.5 34t33.5 14q20 0 33.5 -14t11.5 -34zM119 41q-1 -20 -16 -34.5t-34 -14.5q-20 0 -33 14.5
t-12 34.5q2 20 16.5 34t34.5 14q19 0 32.5 -14t11.5 -34z" />
    <glyph glyph-name="perthousand" unicode="&#x2030;" horiz-adv-x="996" 
d="M949 196q0 -92 -46 -149t-124 -57q-51 0 -80.5 29t-29.5 88q0 92 46 148.5t124 56.5q51 0 80.5 -29t29.5 -87zM383 569q0 -92 -46 -149t-124 -57q-51 0 -80.5 29t-29.5 88q0 92 46 148.5t124 56.5q51 0 80.5 -29t29.5 -87zM678 662l-583 -683l-39 33l583 684zM631 196
q0 -92 -46 -149t-124 -57q-51 0 -80.5 29t-29.5 88q0 92 46 148.5t124 56.5q51 0 80.5 -29t29.5 -87zM890 188q0 37 -13.5 57t-49.5 20q-46 0 -72.5 -45.5t-26.5 -104.5q0 -38 13 -57.5t48 -19.5q47 0 74 45t27 105zM325 561q0 37 -13.5 56.5t-49.5 19.5q-47 0 -73.5 -45
t-26.5 -104q0 -38 13 -57.5t48 -19.5q47 0 74.5 45t27.5 105zM573 188q0 37 -13.5 57t-49.5 20q-47 0 -73.5 -45t-26.5 -105q0 -38 13 -57.5t48 -19.5q47 0 74.5 45t27.5 105z" />
    <glyph glyph-name="guilsinglleft" unicode="&#x2039;" horiz-adv-x="309" 
d="M246 384l-122 -140l89 -137l-49 -31l-103 169l142 171z" />
    <glyph glyph-name="guilsinglright" unicode="&#x203a;" horiz-adv-x="309" 
d="M246 247l-142 -172l-43 32l122 140l-89 137l48 31z" />
    <glyph glyph-name="fraction" unicode="&#x2044;" horiz-adv-x="398" 
d="M572 722l-590 -842l-46 29l590 843z" />
    <glyph glyph-name="trademark" unicode="&#x2122;" horiz-adv-x="692" 
d="M670 675l-13 -281h-50l7 166l4 58l-23 -49l-87 -175h-55l-18 177l-4 47l-11 -37l-62 -187h-47l94 281h70l17 -176l3 -50l17 45l90 181h68zM340 675l-7 -40h-76l-46 -241h-53l47 241h-77l7 40h205z" />
    <glyph glyph-name="partialdiff" unicode="&#x2202;" horiz-adv-x="855" 
d="M817 358q0 -70 -18 -133t-53.5 -116t-96.5 -84t-139 -31q-72 0 -142 14l128 668q-44 8 -92 8q-75 0 -116.5 -31.5t-54.5 -100.5l-11 -55h150l-11 -50h-148l-91 -477q-23 -121 -78 -174.5t-146 -53.5q-44 0 -85 9l16 55q37 -11 79 -11q62 0 97.5 39t53.5 133l92 480h-112
l11 50h111l10 56q35 182 238 182q73 0 157 -13l-49 -255q-6 -37 -55 -200l2 -1q42 107 105 173.5t141 66.5q107 0 107 -148zM753 347q0 106 -59 106q-52 0 -106.5 -62.5t-90.5 -141.5t-49 -147l-10 -48q39 -11 82 -11q61 0 108 27.5t73 73.5t39 97.5t13 105.5z" />
    <glyph glyph-name="product" unicode="&#x220f;" horiz-adv-x="571" 
d="M547 717l-24 -53q-52 19 -111 19q-155 0 -183 -150l-7 -36h304l-110 -574q-19 -95 -61 -138t-126 -43q-34 0 -62 7l12 57q30 -11 59 -11q55 0 79 31t41 119l96 502h-241l-91 -477q-23 -121 -78 -174.5t-146 -53.5q-44 0 -85 9l16 55q37 -11 79 -11q62 0 97.5 39t53.5 133
l92 480h-112l11 50h112l3 25q33 213 253 213q64 0 129 -18z" />
    <glyph glyph-name="summation" unicode="&#x2211;" horiz-adv-x="886" 
d="M810 335l-64 -335h-62l62 322q25 131 -54 131q-51 0 -105.5 -62t-90 -142t-48.5 -148l-19 -101h-62l129 676q-44 8 -92 8q-75 0 -116.5 -31.5t-54.5 -100.5l-11 -55h150l-11 -50h-148l-91 -477q-23 -121 -78 -174.5t-146 -53.5q-44 0 -85 9l16 55q37 -11 79 -11
q62 0 97.5 39t53.5 133l92 480h-112l11 50h111l10 56q35 182 238 182q73 0 157 -13l-46 -242q-15 -77 -57 -208l2 -1q40 99 103 167t140 68q66 0 92 -44.5t10 -126.5z" />
    <glyph glyph-name="radical" unicode="&#x221a;" horiz-adv-x="602" 
d="M561 758l-236 -758h-71l-159 448h-95v49h145l105 -311q24 -70 40 -125h2q16 65 31 116l171 581h67z" />
    <glyph glyph-name="infinity" unicode="&#x221e;" horiz-adv-x="968" 
d="M902 275q0 -66 -46.5 -112.5t-124.5 -46.5q-57 0 -116.5 31t-132.5 87q-75 -56 -133.5 -87t-115.5 -31q-81 0 -123.5 43t-42.5 109q0 67 46.5 113t122.5 46q59 0 118.5 -31t132.5 -87q75 56 133 87t115 31q80 0 123.5 -43.5t43.5 -108.5zM836 270q0 46 -27.5 74t-78.5 28
q-39 0 -85.5 -25.5t-109.5 -73.5q44 -34 71 -52t63 -34t66 -16q47 0 74 29t27 70zM434 270q-66 50 -112 76t-88 26q-47 0 -74.5 -28.5t-27.5 -70.5q0 -46 28 -74t79 -28q39 0 85.5 25.5t109.5 73.5z" />
    <glyph glyph-name="integral" unicode="&#x222b;" horiz-adv-x="769" 
d="M768 478l-221 -204l162 -274h-77l-151 273l-52 -273h-62l129 676q-44 8 -92 8q-75 0 -116.5 -31.5t-54.5 -100.5l-11 -55h150l-11 -50h-148l-91 -477q-23 -121 -78 -174.5t-146 -53.5q-44 0 -85 9l16 55q37 -11 79 -11q62 0 97.5 39t53.5 133l92 480h-112l11 50h111
l10 56q35 182 237 182q73 0 158 -13l-84 -443l245 239z" />
    <glyph glyph-name="approxequal" unicode="&#x2248;" horiz-adv-x="599" 
d="M522 326q-53 -51 -121 -51q-51 0 -108.5 30t-99.5 30q-46 0 -96 -42l-21 46q55 51 121 51q49 0 109.5 -31t98.5 -31q45 0 96 45zM522 164q-58 -47 -121 -47q-52 0 -109.5 30t-98.5 30q-46 0 -96 -42l-21 46q57 51 121 51q48 0 108.5 -31t99.5 -31q47 0 96 40z" />
    <glyph glyph-name="notequal" unicode="&#x2260;" horiz-adv-x="635" 
d="M773 726l-17 -53q-36 10 -78 10q-62 0 -98.5 -36t-49.5 -115l-6 -35h150l-10 -50h-150l-92 -487q-41 -218 -245 -218q-77 0 -157 33q-45 -33 -122 -33q-44 0 -85 9l16 55q37 -11 79 -11q62 0 97.5 39t53.5 133l92 480h-112l11 50h111l5 28q39 209 243 209q77 0 156 -33
q47 34 123 34q40 0 85 -9zM520 657q-53 26 -118 26q-147 0 -174 -152l-6 -34h240l6 34q16 81 52 126zM453 447h-240l-91 -477q-20 -98 -57 -148q54 -27 120 -27q73 0 115.5 38.5t58.5 123.5z" />
    <glyph glyph-name="lessequal" unicode="&#x2264;" horiz-adv-x="871" 
d="M848 717l-23 -53q-54 19 -112 19q-154 0 -183 -155l-6 -31h301l-95 -497h-62l86 447h-240l-92 -487q-41 -218 -245 -218q-77 0 -157 33q-45 -33 -122 -33q-44 0 -85 9l16 55q37 -11 79 -11q62 0 97.5 39t53.5 133l92 480h-112l11 50h111l5 28q39 209 243 209
q81 0 162 -36q56 37 148 37q66 0 129 -18zM525 654q-57 29 -123 29q-73 0 -117 -39t-57 -113l-6 -34h240l5 28q15 83 58 129zM453 447h-240l-91 -477q-20 -98 -57 -148q54 -27 120 -27q73 0 115.5 38.5t58.5 123.5z" />
    <glyph glyph-name="greaterequal" unicode="&#x2265;" horiz-adv-x="871" 
d="M867 722l-137 -722h-61l128 676q-43 8 -91 8q-76 0 -117.5 -31.5t-54.5 -100.5l-10 -55h150l-10 -50h-150l-92 -487q-41 -218 -245 -218q-77 0 -157 33q-45 -33 -122 -33q-44 0 -85 9l16 55q37 -11 79 -11q62 0 97.5 39t53.5 133l92 480h-112l11 50h111l5 28
q39 209 243 209q78 0 157 -33q57 34 144 34q73 0 157 -13zM519 657q-53 26 -117 26q-73 0 -117 -39t-57 -113l-6 -34h240l11 56q12 64 46 104zM453 447h-240l-91 -477q-20 -98 -57 -148q54 -27 120 -27q73 0 115.5 38.5t58.5 123.5z" />
    <glyph glyph-name="lozenge" unicode="&#x25ca;" horiz-adv-x="614" 
d="M572 334l-241 -342h-40l-249 350l243 341h37zM504 329l-202 285l-191 -270l202 -281z" />
    <glyph glyph-name="apple" unicode="&#xf8ff;" horiz-adv-x="1963" 
d="M206 452l169 -7v-51l-169 -8q-2 34 0 66zM581 855q-22 -18 -36 -34l-124 114q22 25 45 45zM1015 1163l-8 -168q-25 1 -51 0l-6 168q33 3 65 0zM1383 856l114 123q31 -29 45 -45l-124 -114q-19 22 -35 36zM1756 452q3 -33 0 -66l-168 8v51zM1345 419q0 -79 -30 -147
t-78 -112v-120l-26 -7l49 -115l-46 -12l46 -110l-46 -12l17 -40l-45 -102h-73q-4 -27 -41.5 -46t-89.5 -19t-89.5 19t-40.5 46h-74l-75 181l48 13l-48 115l53 13l-30 73v121q-49 49 -79 117t-30 144q0 151 107 257.5t258 106.5q150 0 256.5 -106.5t106.5 -257.5zM1287 419
q0 127 -89.5 216.5t-215.5 89.5q-127 0 -216 -89.5t-89 -216.5q0 -67 27.5 -128t79.5 -105h104l-26 226q-16 -3 -34.5 -10t-22.5 -8q-12 -4 -18 8.5t-3.5 27t9.5 15.5q95 31 189 31q95 0 191 -31q7 -1 9 -15.5t-3.5 -27t-17.5 -8.5q-19 8 -61 18l-23 -226h102
q46 40 77 100.5t31 132.5zM1057 420q-30 5 -75 5q-47 0 -77 -5l24 -234h106zM1183 74v63h-403v-94l27 -65zM1191 -52l-31 72l-387 -99l29 -71zM1192 -174l-29 67l-390 -99l43 -105h333l25 57l-11 26l-124 -31l-17 42zM997 456h-1q0 -6 -2 -10h1q2 4 2 10zM994 452v1
q-3 -1 -3 -2l-1 -2v-1q4 1 3 2zM990 453q-5 1 -6 -3l1 -2q1 0 2 1v-1h1zM984 456h-1q-2 -4 -2 -10h1q0 6 2 10zM980 452v1q-3 1 -4 -2t1 -3q1 -1 2 0v1q-1 -1 -2 0zM975 453h-1l-1 -4q0 -1 -1 -1t-1 1l1 4h-1l-1 -4q-1 -1 1 -1t3 1zM969 448v1h-2l2 6h-2l-2 -7h4zM988 452
q-2 0 -2 -3q2 0 2 3z" />
    <glyph glyph-name="fi" unicode="&#xfb01;" horiz-adv-x="569" 
d="M547 717l-24 -53q-52 19 -111 19q-155 0 -183 -150l-7 -36h301l-95 -497h-61l85 447h-239l-91 -477q-23 -121 -78 -174.5t-146 -53.5q-44 0 -85 9l16 55q37 -11 79 -11q62 0 97.5 39t53.5 133l92 480h-112l11 50h111l4 25q33 213 253 213q64 0 129 -18z" />
    <glyph glyph-name="fl" unicode="&#xfb02;" horiz-adv-x="567" 
d="M566 722l-137 -722h-62l129 676q-44 8 -92 8q-75 0 -116.5 -31.5t-54.5 -100.5l-11 -55h150l-11 -50h-148l-91 -477q-23 -121 -78 -174.5t-146 -53.5q-44 0 -85 9l16 55q37 -11 79 -11q62 0 97.5 39t53.5 133l92 480h-112l11 50h111l10 56q35 182 237 182q73 0 158 -13z
" />
  </font>
</defs>
</svg>
